<?xml version="1.0" encoding="utf-8"?>
<!-- Generator: Adobe Illustrator 26.3.1, SVG Export Plug-In . SVG Version: 6.00 Build 0)  -->
<svg version="1.1" id="Calque_1" xmlns="http://www.w3.org/2000/svg" xmlns:xlink="http://www.w3.org/1999/xlink" x="0px" y="0px"
	 viewBox="0 0 1024 1024" style="enable-background:new 0 0 1024 1024;" xml:space="preserve">
<style type="text/css">
	.st0{fill:#AAA9AA;}
</style>
<g id="Cydv7Z.tif">
	<g>
		<path class="st0" d="M535.9,1024c-36-0.9-64.9-28.4-67.3-64.7c-0.4-6.3-0.6-12.6-0.6-19c-0.5-122.9-0.9-245.8-1.3-368.7
			c-0.1-16-0.1-16.1-16.2-16.1c-123.3-0.6-246.6-1.2-369.9-1.7c-17.7-0.1-34.8-2.3-50-12.6C-14.6,510.4-8.8,441,41.8,416.6
			c72.1-34.8,144.8-68.4,217.2-102.5c17.8-8.4,17.8-8.4,31.6,5.6C428.8,459.3,567,599,705.4,738.5c5.4,5.5,6.7,9.4,3.2,16.9
			c-32.7,70.4-65.1,140.9-97.2,211.6c-11.5,25.3-27.6,45.3-55.2,53.2C549.6,1022.1,542.6,1022.8,535.9,1024z"/>
		<path class="st0" d="M807.8,537.7c-108.5-108.9-217-217.7-326-327.1c3-1.7,5.4-3.2,8-4.4C621.6,144.5,753.5,82.8,885.3,21
			c21.9-10.3,44.6-16.6,68.9-12.2c39.6,7,62.4,42.9,53.3,84.4c-2.6,11.9-6.5,23.8-11.6,34.8C934.5,262.5,872.7,396.9,811,531.4
			C809.8,534,808.4,536.5,807.8,537.7z"/>
		<path class="st0" d="M981.5,913.4c-9.8-5-19-9.4-27.9-14.4c-2.8-1.5-4.8-4.5-7.2-6.8C677.7,621,409,349.8,140.1,78.8
			c-11.5-11.6-17.7-24.3-16.2-40.9c1.4-15.7,8.8-27.1,22.9-33.5c14.5-6.7,28.9-5.9,42.2,3.5c4,2.8,7.5,6.5,11,10
			c269.3,272,538.6,544,807.9,816c21.1,21.3,21.8,50.3,0.5,67.1C1001.3,906.5,991.7,908.8,981.5,913.4z"/>
	</g>
</g>
</svg>
